<svg width="444" height="444" viewBox="0 0 444 444" fill="none" xmlns="http://www.w3.org/2000/svg">
<ellipse cx="395.547" cy="50.6612" rx="39.9109" ry="41.0403" fill="black"/>
<rect width="416.458" height="79.9487" transform="matrix(0.710021 -0.704181 0.684111 0.729378 72.9512 314.131)" fill="black"/>
<path d="M27.1435 414.57L73.3033 313.764L127.725 372.502L27.1435 414.57Z" fill="black"/>
<path d="M208.727 246.811C201.902 232.934 184.729 227.032 170.37 233.628C156.011 240.224 149.904 256.821 156.729 270.698C163.554 284.575 180.727 290.478 195.086 283.882C209.445 277.285 215.552 260.689 208.727 246.811Z" fill="black"/>
<path d="M311.868 240.505C305.043 226.628 287.87 220.726 273.511 227.322C259.152 233.918 253.045 250.515 259.87 264.392C266.695 278.269 283.868 284.172 298.226 277.576C312.585 270.98 318.693 254.383 311.868 240.505Z" fill="black"/>
<path d="M275.654 123.659C271.104 114.408 259.656 110.473 250.083 114.87C240.511 119.268 236.439 130.332 240.989 139.584C245.539 148.835 256.988 152.77 266.56 148.373C276.133 143.975 280.204 132.911 275.654 123.659Z" fill="black"/>
<path d="M189.59 24.7421C193.015 57.7787 160.681 97.1131 115.134 83.2339C140.827 135.779 97.7316 193.14 39.8016 188.695C27.3434 320.261 146.831 402.125 253.385 390.036C358.605 378.098 433.998 285.888 421.673 184.21C408.522 75.7165 301.307 1.04991 189.59 24.7421ZM383.55 188.535C393.396 269.767 332.981 343.659 248.92 353.196C185.826 360.354 86.9013 320.6 78.006 221.707C125.484 208.478 159.479 166.901 161.028 119.108C167.734 117.04 208.474 104.015 223.702 57.4715C306.505 53.4924 374.485 113.75 383.55 188.535Z" fill="black"/>
<ellipse cx="188.377" cy="188.141" rx="31.1853" ry="30.1394" fill="black"/>
<ellipse cx="341.904" cy="206.688" rx="11.9943" ry="11.5921" fill="black"/>
<ellipse cx="236.353" cy="304.061" rx="11.9943" ry="11.5921" fill="black"/>
<ellipse cx="207.569" cy="104.676" rx="11.9943" ry="11.5921" fill="black"/>
</svg>
